<?xml version="1.0" encoding="utf-8"?>
<!-- Generator: Adobe Illustrator 27.5.0, SVG Export Plug-In . SVG Version: 6.00 Build 0)  -->
<svg version="1.1" id="Capa_1" xmlns="http://www.w3.org/2000/svg" xmlns:xlink="http://www.w3.org/1999/xlink" x="0px" y="0px"
	 viewBox="0 0 2122 2122" style="enable-background:new 0 0 2122 2122;" xml:space="preserve">
<g>
	<path style="fill:#444183;" d="M1866.803,798.174l-144.967-73.062c-0.154-0.078-0.315-0.129-0.47-0.203
		c-0.714-0.343-1.437-0.66-2.178-0.943c-0.301-0.115-0.602-0.223-0.905-0.327c-0.683-0.235-1.377-0.44-2.079-0.622
		c-0.322-0.084-0.642-0.173-0.966-0.245c-0.723-0.16-1.454-0.281-2.191-0.385c-0.292-0.041-0.584-0.1-0.877-0.132
		c-1.016-0.111-2.04-0.178-3.072-0.178h-515.313c-10.21-17.052-23.134-32.567-38.26-46.017
		c-10.524-9.366-22.133-17.726-34.593-25.001l162.761-356.104c4.681,0.898,9.5,1.407,14.442,1.408
		c42.167-0.004,76.338-34.178,76.343-76.34c-0.004-42.168-34.175-76.342-76.343-76.346c-42.168,0.005-76.339,34.178-76.343,76.346
		c0.002,24.329,11.42,45.948,29.146,59.927l-162.48,355.492c-26.339-10.17-55.331-15.817-85.774-15.819
		c-17.879,0.001-35.25,1.974-51.89,5.633L794.618,283.552c17.725-13.979,29.143-35.6,29.145-59.931
		c-0.005-42.163-34.175-76.336-76.343-76.341c-42.168,0.005-76.339,34.178-76.344,76.341c0.005,42.167,34.175,76.341,76.344,76.346
		c4.943-0.001,9.762-0.511,14.443-1.408l154.14,337.245c-24.783,9.69-47.2,23.378-66.162,40.255
		c-15.127,13.451-28.05,28.965-38.261,46.018h-511.2c-15.474,0-28.083,12.419-28.319,27.893L256.43,1779.454
		c-0.117,7.586,2.816,14.899,8.139,20.302c5.322,5.408,12.592,8.448,20.178,8.448h209.062c-6.731,16.961-11.72,33-15.199,42.611
		c-6.458,17.842-12.641,35.786-18.546,53.817c-2.928,8.94-5.825,18.266-4.604,27.596c1.22,9.33,7.785,18.655,17.113,19.893
		c6.536,0.867,12.936-2.29,18.322-6.09c12.572-8.872,21.951-21.486,30.713-34.134c19.834-28.634,37.686-58.635,53.384-89.725
		c2.308-4.569,4.561-9.228,6.577-13.968h801.487c2.017,4.74,4.27,9.399,6.578,13.968c15.7,31.089,33.552,61.091,53.386,89.725
		c8.763,12.648,18.142,25.262,30.714,34.134c5.384,3.8,11.786,6.957,18.319,6.09c9.327-1.238,15.895-10.563,17.115-19.893
		c1.221-9.33-1.676-18.655-4.604-27.596c-5.908-18.031-12.09-35.975-18.548-53.817c-3.479-9.611-8.468-25.65-15.199-42.611h222.565
		c0.024,0,0.048,0.005,0.073,0.005c0.106,0,0.211-0.019,0.317-0.021c1.006-0.01,1.996-0.078,2.974-0.191
		c0.324-0.037,0.643-0.097,0.966-0.146c0.821-0.124,1.631-0.28,2.428-0.473c0.293-0.071,0.587-0.143,0.879-0.224
		c0.99-0.274,1.961-0.591,2.905-0.967c0.079-0.032,0.161-0.054,0.24-0.087c1.071-0.438,2.102-0.946,3.104-1.506
		c0.063-0.035,0.13-0.057,0.192-0.093l160.602-91.386c8.85-5.037,14.314-14.436,14.314-24.614V823.46
		C1882.377,812.766,1876.353,802.987,1866.803,798.174z"/>
	<path style="fill:#E72F75;" d="M1170,722.076c-7.901-11.261-17.193-21.708-27.744-31.112
		c-35.536-31.642-84.884-51.393-139.572-51.388c-54.689-0.005-104.036,19.746-139.574,51.388
		c-10.55,9.404-19.843,19.85-27.743,31.112H1170z"/>
	<polygon style="fill:#E72F75;" points="1722.033,1763.625 1854.055,1688.501 1854.055,823.46 1737.206,764.568 	"/>
	<polygon style="fill:#FAC824;" points="1693.464,1779.883 1709.098,750.398 300.382,750.398 284.747,1779.883 	"/>
	<path style="fill:#444183;" d="M1287.437,852.112H443.519c-41.254,0-74.821,33.564-74.821,74.821v669.422
		c0,41.257,33.567,74.826,74.821,74.826h843.918c41.274,0,74.85-33.569,74.85-74.826V926.933
		C1362.287,885.677,1328.711,852.112,1287.437,852.112z"/>
	<path style="fill:#2BB7BE;" d="M1055.71,1157.169c53.333-54.177,100.28-114.548,139.642-179.605
		c20.255-33.423,34.375-71.391,49.491-108.258H443.507c-31.832,0-57.625,25.793-57.625,57.622v514.967
		c165.685-2.446,330.774-47.547,473.709-131.459C931.384,1268.278,997.338,1216.438,1055.71,1157.169z"/>
	<path style="fill:#444183;" d="M1530.26,1174.071c-48.383,0-87.605,39.225-87.605,87.605c0,48.385,39.223,87.605,87.605,87.605
		c48.385,0,87.607-39.22,87.607-87.605C1617.868,1213.296,1578.645,1174.071,1530.26,1174.071z"/>
	<path style="fill:#FAC824;" d="M704.021,267.023c11.13,11.119,26.427,17.974,43.4,17.978c16.972-0.004,32.269-6.858,43.399-17.978
		c11.119-11.131,17.973-26.428,17.977-43.402c-0.004-16.971-6.858-32.267-17.976-43.397c-11.131-11.118-26.428-17.973-43.4-17.976
		c-16.973,0.003-32.27,6.858-43.401,17.976c-11.118,11.131-17.971,26.426-17.976,43.397
		C686.049,240.594,692.902,255.892,704.021,267.023z"/>
	<path style="fill:#FAC824;" d="M1298.136,281.395c16.973-0.004,32.269-6.858,43.4-17.977c11.118-11.13,17.972-26.426,17.977-43.397
		c-0.005-16.974-6.859-32.271-17.977-43.402c-11.13-11.119-26.427-17.973-43.4-17.977c-16.973,0.004-32.27,6.858-43.4,17.977
		c-11.119,11.131-17.972,26.429-17.976,43.402c0.004,16.97,6.858,32.266,17.976,43.397
		C1265.867,274.536,1281.163,281.391,1298.136,281.395z"/>
	<path style="fill:#E72F75;" d="M1597.164,1086.734h-143.792c-11.386,0-20.704,9.315-20.704,20.701s9.318,20.707,20.704,20.707
		h143.792c11.386,0,20.704-9.321,20.704-20.707S1608.55,1086.734,1597.164,1086.734z"/>
	<path style="fill:#444183;" d="M1597.164,1013.126h-143.792c-11.386,0-20.704,9.316-20.704,20.701
		c0,11.391,9.318,20.707,20.704,20.707h143.792c11.386,0,20.704-9.316,20.704-20.707
		C1617.868,1022.442,1608.55,1013.126,1597.164,1013.126z"/>
	<path style="fill:#E72F75;" d="M1597.164,939.518h-143.792c-11.386,0-20.704,9.32-20.704,20.706
		c0,11.386,9.318,20.701,20.704,20.701h143.792c11.386,0,20.704-9.316,20.704-20.701
		C1617.868,948.838,1608.55,939.518,1597.164,939.518z"/>
	<path style="fill:#E72F75;" d="M1597.164,1535.703h-143.792c-11.386,0-20.704,9.315-20.704,20.702
		c0,11.391,9.318,20.706,20.704,20.706h143.792c11.386,0,20.704-9.316,20.704-20.706
		C1617.868,1545.018,1608.55,1535.703,1597.164,1535.703z"/>
	<path style="fill:#444183;" d="M1597.164,1462.095h-143.792c-11.386,0-20.704,9.315-20.704,20.706
		c0,11.386,9.318,20.702,20.704,20.702h143.792c11.386,0,20.704-9.316,20.704-20.702
		C1617.868,1471.41,1608.55,1462.095,1597.164,1462.095z"/>
	<path style="fill:#E72F75;" d="M1597.164,1388.487h-143.792c-11.386,0-20.704,9.32-20.704,20.706
		c0,11.386,9.318,20.702,20.704,20.702h143.792c11.386,0,20.704-9.316,20.704-20.702
		C1617.868,1397.807,1608.55,1388.487,1597.164,1388.487z"/>
	<path style="fill:#E72F75;" d="M1530.26,1211.162c-26.039,0-47.15,21.111-47.15,47.152c0,26.041,21.111,47.152,47.15,47.152
		c26.041,0,47.152-21.111,47.152-47.152C1577.412,1232.273,1556.302,1211.162,1530.26,1211.162z"/>
	<path style="fill:#A3D7E1;" d="M1287.449,869.306h-42.606c-15.116,36.867-29.235,74.835-49.491,108.258
		c-39.362,65.057-86.309,125.428-139.642,179.605c-58.373,59.269-124.326,111.109-196.119,153.267
		c-142.935,83.912-308.024,129.013-473.709,131.459v154.46c0,31.829,25.793,57.622,57.625,57.622h843.942
		c31.832,0,57.674-25.793,57.674-57.622V926.929C1345.123,895.099,1319.281,869.306,1287.449,869.306z"/>
	<path style="fill:#FFFFFF;" d="M582.254,933.365c-14.205-6.714-31.106-4.268-45.63,1.559
		c-38.156,15.303-64.516,51.478-80.185,89.72c-24.348,59.43-27.103,127.663-7.634,189.115c6.477,20.449,15.763,40.76,31.642,55.099
		c15.881,14.344,39.54,21.491,59.081,13.125c35.138-15.04,29.352-63.03,28.714-94.041c-0.955-46.363,6.275-92.555,22.256-136.01
		c7.559-20.555,17.081-40.882,18.65-62.772C610.717,967.27,602.025,942.709,582.254,933.365z"/>
</g>
</svg>
